<svg aria-hidden="true" style="position: absolute; width: 0; height: 0; overflow: hidden;" version="1.1" xmlns="http://www.w3.org/2000/svg" xmlns:xlink="http://www.w3.org/1999/xlink">
<defs>
<symbol id="icon-arrow-leftsvg" viewBox="0 0 32 32">
<path d="M18.562 27.429l-9.813-9.813h21.911v-4.571h-21.911l9.813-9.813-3.232-3.232-15.33 15.33 15.33 15.33 3.232-3.232z"></path>
</symbol>
<symbol id="icon-arrow-rightsvg" viewBox="0 0 32 32">
<path d="M12.098 28.098l3.232 3.232 15.33-15.33-15.33-15.33-3.232 3.232 9.813 9.813h-21.911v4.571h21.911l-9.813 9.813z"></path>
</symbol>
<symbol id="icon-arrow-upsvg" viewBox="0 0 32 32">
<path d="M13.714 10.089v21.911h4.571v-21.911l9.813 9.813 3.232-3.232-15.33-15.33-15.33 15.33 3.232 3.232 9.813-9.813z"></path>
</symbol>
<symbol id="icon-box-grid-menusvg" viewBox="0 0 32 32">
<path d="M12.666 1h-10c-0.92 0-1.666 0.746-1.666 1.666v0 10c0 0.001 0 0.001 0 0.002 0 0.92 0.746 1.666 1.666 1.666h10c0.001 0 0.001 0 0.002 0 0.92 0 1.666-0.746 1.666-1.666 0-0.001 0-0.001 0-0.002v0-10c0-0.92-0.746-1.666-1.666-1.666-0.001 0-0.001 0-0.002 0h0zM11 11h-6.666v-6.666h6.666v6.666zM19.334 14.334h10c0.92 0 1.666-0.746 1.666-1.666 0-0.001 0-0.001 0-0.002v0-10c0-0.92-0.746-1.666-1.666-1.666h-10c-0.001 0-0.001 0-0.002 0-0.92 0-1.666 0.746-1.666 1.666v0 10c0 0.001 0 0.001 0 0.002 0 0.92 0.746 1.666 1.666 1.666 0.001 0 0.001 0 0.002 0h-0zM21 4.334h6.666v6.666h-6.666v-6.666zM1 29.334c0 0.92 0.746 1.666 1.666 1.666v0h10c0.001 0 0.001 0 0.002 0 0.92 0 1.666-0.746 1.666-1.666v0-10c0-0.001 0-0.001 0-0.002 0-0.92-0.746-1.666-1.666-1.666-0.001 0-0.001 0-0.002 0h-10c-0.92 0-1.666 0.746-1.666 1.666 0 0.001 0 0.001 0 0.002v-0 10zM4.334 21h6.666v6.666h-6.666v-6.666zM17.666 29.334c0 0.92 0.746 1.666 1.666 1.666 0.001 0 0.001 0 0.002 0h10c0.92 0 1.666-0.746 1.666-1.666v0-10c0-0.001 0-0.001 0-0.002 0-0.92-0.746-1.666-1.666-1.666h-10c-0.001 0-0.001 0-0.002 0-0.92 0-1.666 0.746-1.666 1.666 0 0.001 0 0.001 0 0.002v-0 10zM21 21h6.666v6.666h-6.666v-6.666z"></path>
</symbol>
<symbol id="icon-close-Xsvg" viewBox="0 0 32 32">
<path d="M27.18 0.918l-11.318 11.312-11.31-11.312-3.77 3.77 11.312 11.312-11.314 11.312 3.77 3.77 11.312-11.312 11.314 11.312 3.772-3.77-11.31-11.312 11.312-11.312-3.772-3.77z"></path>
</symbol>
<symbol id="icon-facebooksvg" viewBox="0 0 16 32">
<path d="M10.328 30.996v-13.66h4.608l0.686-5.35h-5.294v-3.406c0-1.544 0.43-2.6 2.646-2.6h2.806v-4.768c-1.191-0.135-2.571-0.212-3.97-0.212-0.050 0-0.1 0-0.15 0l0.008-0c-4.072 0-6.868 2.486-6.868 7.052v3.924h-4.58v5.35h4.588v13.67h5.52z"></path>
</symbol>
<symbol id="icon-instagramsvg" viewBox="0 0 32 32">
<path d="M16 9.835c-3.405 0-6.166 2.76-6.166 6.166s2.76 6.166 6.166 6.166v0c3.405 0 6.166-2.76 6.166-6.166s-2.76-6.166-6.166-6.166v0zM16 20.005c-0 0-0.001 0-0.001 0-2.212 0-4.005-1.793-4.005-4.005s1.793-4.004 4.004-4.005h0c2.212 0 4.005 1.793 4.005 4.005s-1.793 4.005-4.005 4.005v0zM22.408 11.046c0.794 0 1.438-0.644 1.438-1.438s-0.644-1.438-1.438-1.438v0c-0.794 0-1.438 0.644-1.438 1.438s0.644 1.438 1.438 1.438v0z"></path>
<path d="M27.376 8.149c-0.637-1.617-1.892-2.873-3.467-3.496l-0.042-0.014c-0.864-0.334-1.862-0.538-2.906-0.56l-0.009-0c-1.285-0.056-1.691-0.072-4.947-0.072s-3.672 0-4.946 0.072c-1.052 0.021-2.049 0.225-2.972 0.58l0.060-0.020c-1.617 0.637-2.874 1.893-3.496 3.469l-0.014 0.042c-0.335 0.863-0.538 1.861-0.56 2.904l-0 0.009c-0.056 1.283-0.074 1.69-0.074 4.947 0 3.256 0 3.67 0.074 4.947 0.021 0.997 0.208 1.981 0.56 2.915 0.639 1.617 1.895 2.872 3.47 3.496l0.042 0.015c0.86 0.347 1.856 0.564 2.897 0.6l0.015 0c1.285 0.056 1.691 0.072 4.947 0.072s3.674 0 4.947-0.072c1.052-0.023 2.051-0.226 2.974-0.58l-0.060 0.020c1.617-0.639 2.873-1.894 3.497-3.469l0.015-0.042c0.35-0.933 0.538-1.917 0.558-2.914 0.056-1.283 0.074-1.69 0.074-4.947s0-3.67-0.074-4.947c-0.017-1.066-0.222-2.079-0.582-3.015l0.020 0.060zM25.754 20.858c-0.010 0.768-0.149 1.53-0.416 2.251-0.413 1.052-1.23 1.868-2.255 2.272l-0.027 0.009c-0.661 0.253-1.425 0.404-2.223 0.414l-0.005 0c-1.266 0.058-1.624 0.074-4.872 0.074-3.25 0-3.582 0-4.872-0.074-0.802-0.011-1.565-0.162-2.271-0.431l0.045 0.015c-1.056-0.41-1.877-1.227-2.283-2.253l-0.009-0.027c-0.25-0.66-0.401-1.423-0.414-2.22l-0-0.006c-0.058-1.267-0.070-1.624-0.070-4.872s0-3.581 0.070-4.874c0.008-0.768 0.149-1.528 0.416-2.25 0.416-1.052 1.235-1.869 2.263-2.271l0.027-0.009c0.66-0.252 1.422-0.404 2.219-0.416l0.005-0c1.269-0.056 1.626-0.072 4.874-0.072 3.25 0 3.584 0 4.872 0.072 0.762 0.010 1.514 0.15 2.227 0.416 1.052 0.414 1.869 1.23 2.274 2.255l0.009 0.027c0.261 0.714 0.402 1.466 0.414 2.226 0.058 1.269 0.072 1.624 0.072 4.874 0 3.248 0 3.597-0.058 4.872h-0.016z"></path>
</symbol>
<symbol id="icon-minussvg" viewBox="0 0 160 32">
<path d="M5.328 5.328h149.344v21.344h-149.344v-21.344z"></path>
</symbol>
<symbol id="icon-moonsvg" viewBox="0 0 32 32">
<path d="M28.951 17.547c-0.922 0.256-1.982 0.403-3.075 0.404h-0c-0.012 0-0.025 0-0.039 0-3.255 0-6.2-1.323-8.328-3.461l-0-0c-2.137-2.149-3.458-5.111-3.458-8.382 0-1.088 0.146-2.142 0.42-3.143l-0.019 0.083c0.031-0.114 0.050-0.245 0.050-0.38 0-0.818-0.663-1.481-1.481-1.481-0.135 0-0.265 0.018-0.389 0.052l0.010-0.002c-2.615 0.711-4.861 2.041-6.653 3.826l0-0c-5.774 5.774-5.774 15.173-0.002 20.951 2.667 2.682 6.359 4.341 10.439 4.341 0.014 0 0.028-0 0.042-0h-0.002c0.013 0 0.027 0 0.042 0 4.077 0 7.766-1.658 10.43-4.337l0.001-0.001c1.786-1.791 3.117-4.038 3.803-6.55l0.024-0.104c0.032-0.114 0.050-0.245 0.050-0.38 0-0.819-0.664-1.483-1.483-1.483-0.135 0-0.266 0.018-0.391 0.052l0.010-0.002zM24.844 23.92c-2.133 2.145-5.085 3.472-8.348 3.472-0.011 0-0.021 0-0.032-0h0.002c-0.008 0-0.017 0-0.026 0-3.265 0-6.221-1.328-8.355-3.473l-0-0c-2.141-2.147-3.464-5.109-3.464-8.38s1.324-6.234 3.465-8.381l-0 0c0.87-0.87 1.876-1.603 2.984-2.167l0.067-0.031c-0.028 0.343-0.044 0.743-0.044 1.147 0 4.090 1.653 7.794 4.328 10.481l-0.001-0.001c2.674 2.676 6.369 4.331 10.451 4.331 0.414 0 0.824-0.017 1.229-0.050l-0.053 0.004c-0.598 1.172-1.331 2.178-2.2 3.049l0-0z"></path>
</symbol>
<symbol id="icon-plussvg" viewBox="0 0 32 32">
<path d="M30.934 13.866h-12.8v-12.8h-4.269v12.8h-12.8v4.269h12.8v12.8h4.269v-12.8h12.8v-4.269z"></path>
</symbol>
<symbol id="icon-quptessvg" viewBox="0 0 45 32">
<path d="M11.733 12.8c-0.476 0-0.932 0.073-1.387 0.139 0.147-0.495 0.299-0.998 0.542-1.451 0.243-0.657 0.623-1.227 1.001-1.801 0.316-0.621 0.873-1.041 1.282-1.572 0.429-0.516 1.013-0.86 1.476-1.289 0.454-0.448 1.050-0.672 1.523-0.988 0.495-0.284 0.926-0.597 1.387-0.747l1.15-0.474 1.011-0.42-1.035-4.134-1.274 0.307c-0.407 0.102-0.905 0.222-1.47 0.365-0.578 0.107-1.195 0.399-1.882 0.666-0.678 0.303-1.463 0.508-2.193 0.994-0.734 0.465-1.581 0.853-2.327 1.476-0.723 0.642-1.596 1.199-2.24 2.016-0.704 0.764-1.399 1.566-1.939 2.479-0.625 0.87-1.050 1.826-1.498 2.771-0.405 0.945-0.732 1.911-0.998 2.85-0.506 1.882-0.732 3.669-0.819 5.199-0.073 1.532-0.030 2.805 0.060 3.727 0.032 0.435 0.092 0.858 0.134 1.15l0.053 0.358 0.055-0.013c0.96 4.369 4.797 7.59 9.387 7.59 5.302 0 9.6-4.298 9.6-9.6s-4.298-9.6-9.6-9.6c-0 0-0 0-0.001 0h0zM35.2 12.8c-0.476 0-0.932 0.073-1.387 0.139 0.147-0.495 0.299-0.998 0.542-1.451 0.243-0.657 0.623-1.227 1.001-1.801 0.316-0.621 0.873-1.041 1.282-1.572 0.429-0.516 1.013-0.86 1.476-1.289 0.454-0.448 1.050-0.672 1.523-0.988 0.495-0.284 0.926-0.597 1.387-0.747l1.15-0.474 1.011-0.42-1.035-4.134-1.274 0.307c-0.407 0.102-0.905 0.222-1.47 0.365-0.578 0.107-1.195 0.399-1.882 0.666-0.676 0.305-1.463 0.508-2.193 0.996-0.734 0.465-1.581 0.853-2.327 1.476-0.723 0.642-1.596 1.199-2.24 2.014-0.704 0.764-1.399 1.566-1.939 2.479-0.625 0.87-1.050 1.826-1.498 2.771-0.405 0.945-0.732 1.911-0.998 2.85-0.506 1.882-0.732 3.669-0.819 5.199-0.073 1.532-0.030 2.805 0.060 3.727 0.032 0.435 0.092 0.858 0.134 1.15l0.053 0.358 0.055-0.013c0.959 4.369 4.797 7.59 9.387 7.59 5.302 0 9.6-4.298 9.6-9.6s-4.298-9.6-9.6-9.6c-0 0-0 0-0.001 0h0z"></path>
</symbol>
<symbol id="icon-shopping-bagsvg" viewBox="0 0 32 32">
<path d="M6.667 29.333h18.666c1.472 0 2.667-1.195 2.667-2.666v-14.667c0-0.736-0.597-1.333-1.333-1.333v0h-4v-1.334c-0.005-3.68-2.987-6.662-6.667-6.666h-0c-3.68 0.004-6.663 2.986-6.667 6.665v1.335h-4c-0.736 0-1.333 0.597-1.333 1.333v0 14.667c0 1.47 1.197 2.666 2.667 2.666zM12 9.333c0-2.205 1.795-4 4-4s4 1.795 4 4v1.334h-8v-1.334zM6.667 13.333h2.666v2.667h2.667v-2.667h8v2.667h2.667v-2.667h2.666l0.003 13.334h-18.669v-13.334z"></path>
</symbol>
<symbol id="icon-sunsvg" viewBox="0 0 32 32">
<path d="M8.583 16c0 4.089 3.326 7.417 7.417 7.417 4.089 0 7.417-3.326 7.417-7.417 0-4.089-3.326-7.417-7.417-7.417-4.094 0.005-7.412 3.323-7.417 7.416v0.001zM16 11.545c2.459 0.003 4.452 1.996 4.455 4.455v0c-0.003 2.459-1.996 4.452-4.455 4.455h-0c-2.459-0.003-4.452-1.996-4.455-4.455v-0c0.003-2.459 1.996-4.452 4.455-4.455h0zM14.516 26.372h2.964v4.444h-2.964v-4.444zM14.516 1.186h2.964v4.444h-2.964v-4.444zM1.182 14.519h4.444v2.962h-4.444v-2.962zM26.368 14.519h4.444v2.962h-4.444v-2.962zM4.473 25.428l3.141-3.145 2.096 2.094-3.141 3.145-2.098-2.094zM22.281 7.621l3.145-3.145 2.094 2.096-3.143 3.143-2.096-2.094zM7.618 9.717l-3.143-3.143 2.096-2.096 3.141 3.145-2.094 2.094zM27.52 25.428l-2.094 2.096-3.145-3.145 2.096-2.094 3.143 3.143z"></path>
</symbol>
<symbol id="icon-trashsvg" viewBox="0 0 28 32">
<path d="M18.667 1.186h-8.889c-1.636 0-2.964 1.328-2.964 2.962v2.964h-5.925v2.964h2.964v17.778c0 1.634 1.328 2.962 2.962 2.962h14.816c1.634 0 2.962-1.328 2.962-2.962v-17.778h2.964v-2.964h-5.925v-2.964c0-1.634-1.33-2.962-2.964-2.962zM9.778 4.148h8.889v2.964h-8.889v-2.964zM21.63 27.852h-14.816v-17.778h14.816v17.778z"></path>
</symbol>
<symbol id="icon-twittersvg" viewBox="0 0 32 32">
<path d="M26.176 10.662c0.019 0.234 0.019 0.466 0.019 0.698 0 7.101-5.405 15.28-15.28 15.28-0.012 0-0.026 0-0.040 0-3.049 0-5.888-0.899-8.266-2.447l0.059 0.036c0.432 0.050 0.848 0.067 1.296 0.067 0.008 0 0.018 0 0.027 0 2.517 0 4.832-0.864 6.664-2.312l-0.023 0.017c-2.341-0.043-4.314-1.575-5.013-3.687l-0.011-0.038c0.333 0.050 0.667 0.083 1.016 0.083 0.48 0 0.965-0.067 1.414-0.182-2.473-0.513-4.306-2.674-4.306-5.263 0-0.003 0-0.005 0-0.008v0-0.067c0.715 0.4 1.546 0.648 2.426 0.682-1.451-0.975-2.394-2.611-2.394-4.466 0-0.002 0-0.004 0-0.006v0c0-0.998 0.264-1.912 0.73-2.71 2.662 3.257 6.599 5.386 11.037 5.619l0.038 0.002c-0.082-0.369-0.13-0.794-0.133-1.23v-0.002c0-0 0-0.001 0-0.002 0-2.965 2.403-5.368 5.368-5.368 0.001 0 0.001 0 0.002 0h-0c1.547 0 2.944 0.648 3.925 1.696 1.285-0.253 2.427-0.703 3.456-1.323l-0.048 0.027c-0.416 1.263-1.251 2.292-2.337 2.947l-0.024 0.013c1.146-0.134 2.19-0.427 3.16-0.859l-0.068 0.027c-0.748 1.082-1.64 2-2.66 2.754l-0.031 0.022z"></path>
</symbol>
<symbol id="icon-watch-logosvg" viewBox="0 0 25 32">
<path d="M24.295 16c-0.006-4.357-2.362-8.162-5.869-10.215l-0.056-0.030v-3.088c0-0.818-0.663-1.481-1.481-1.481v0h-8.889c-0.818 0-1.481 0.663-1.481 1.481v0 3.086c-3.563 2.084-5.92 5.89-5.925 10.246v0.001c0.005 4.442 2.451 8.311 6.068 10.339l0.060 0.031h-0.203v3.024c0 0.001 0 0.001 0 0.002 0 0.818 0.663 1.481 1.481 1.481h8.889c0.818 0 1.481-0.663 1.481-1.481 0-0.001 0-0.001 0-0.002v0-3.022h-0.206c3.68-2.057 6.129-5.928 6.132-10.371v-0zM12.443 24.889c-4.906-0.007-8.88-3.983-8.885-8.888v-0.001c0.004-4.906 3.979-8.883 8.885-8.889h0.001c4.903 0 8.889 3.988 8.889 8.889-0.004 4.908-3.981 8.885-8.889 8.889h-0z"></path>
</symbol>
</defs>
</svg>
