<svg xmlns="http://www.w3.org/2000/svg" aria-hidden="true" style="position:absolute;width:0;height:0;overflow:hidden"><defs><symbol id="icon-arrow-left" viewBox="0 0 32 32"><path d="m18.562 27.429-9.813-9.813H30.66v-4.571H8.749l9.813-9.813L15.33 0 0 15.33l15.33 15.33 3.232-3.232z"/></symbol><symbol id="icon-arrow-right" viewBox="0 0 32 32"><path d="m12.098 28.098 3.232 3.232L30.66 16 15.33.67l-3.232 3.232 9.813 9.813H0v4.571h21.911l-9.813 9.813z"/></symbol><symbol id="icon-arrow-up" viewBox="0 0 32 32"><path d="M13.714 10.089V32h4.571V10.089l9.813 9.813 3.232-3.232L16 1.34.67 16.67l3.232 3.232 9.813-9.813z"/></symbol><symbol id="icon-box-grid-menu" viewBox="0 0 32 32"><path d="M12.666 1h-10C1.746 1 1 1.746 1 2.666v10.002c0 .92.746 1.666 1.666 1.666h10.002c.92 0 1.666-.746 1.666-1.666V2.666c0-.92-.746-1.666-1.666-1.666h-.002zM11 11H4.334V4.334H11V11zm8.334 3.334h10c.92 0 1.666-.746 1.666-1.666V2.666C31 1.746 30.254 1 29.334 1H19.332c-.92 0-1.666.746-1.666 1.666v10.002c0 .92.746 1.666 1.666 1.666h.002zm1.666-10h6.666V11H21V4.334zm-20 25C1 30.254 1.746 31 2.666 31h10.002c.92 0 1.666-.746 1.666-1.666V19.332c0-.92-.746-1.666-1.666-1.666H2.666c-.92 0-1.666.746-1.666 1.666v10.002zM4.334 21H11v6.666H4.334V21zm13.332 8.334c0 .92.746 1.666 1.666 1.666h10.002c.92 0 1.666-.746 1.666-1.666V19.332c0-.92-.746-1.666-1.666-1.666H19.332c-.92 0-1.666.746-1.666 1.666v10.002zM21 21h6.666v6.666H21V21z"/></symbol><symbol id="icon-close-X" viewBox="0 0 32 32"><path d="M27.18.918 15.862 12.23 4.552.918l-3.77 3.77L12.094 16 .78 27.312l3.77 3.77L15.862 19.77l11.314 11.312 3.772-3.77L19.638 16 30.95 4.688 27.178.918z"/></symbol><symbol id="icon-facebook" viewBox="0 0 16 32"><path d="M10.328 30.996v-13.66h4.608l.686-5.35h-5.294V8.58c0-1.544.43-2.6 2.646-2.6h2.806V1.212A36.087 36.087 0 0 0 11.81 1h-.15.008C7.596 1 4.8 3.486 4.8 8.052v3.924H.22v5.35h4.588v13.67h5.52z"/></symbol><symbol id="icon-instagram" viewBox="0 0 32 32"><path d="M16 9.835a6.166 6.166 0 1 0 0 12.332 6.166 6.166 0 1 0 0-12.332zm0 10.17h-.001a4.005 4.005 0 0 1-.001-8.01 4.005 4.005 0 1 1 0 8.01zm6.408-8.959a1.438 1.438 0 0 0 0-2.876 1.438 1.438 0 0 0 0 2.876z"/><path d="M27.376 8.149a6.172 6.172 0 0 0-3.467-3.496l-.042-.014a8.632 8.632 0 0 0-2.906-.56h-.009c-1.285-.056-1.691-.072-4.947-.072s-3.672 0-4.946.072a8.734 8.734 0 0 0-2.972.58l.06-.02a6.17 6.17 0 0 0-3.496 3.469l-.014.042a8.596 8.596 0 0 0-.56 2.904v.009c-.056 1.283-.074 1.69-.074 4.947 0 3.256 0 3.67.074 4.947a8.78 8.78 0 0 0 .56 2.915 6.185 6.185 0 0 0 3.47 3.496l.042.015c.86.347 1.856.564 2.897.6h.015c1.285.056 1.691.072 4.947.072s3.674 0 4.947-.072a8.818 8.818 0 0 0 2.974-.58l-.06.02a6.186 6.186 0 0 0 3.497-3.469l.015-.042c.35-.933.538-1.917.558-2.914.056-1.283.074-1.69.074-4.947s0-3.67-.074-4.947a8.762 8.762 0 0 0-.582-3.015l.02.06zm-1.622 12.709a6.735 6.735 0 0 1-.416 2.251 4.001 4.001 0 0 1-2.255 2.272l-.027.009a6.5 6.5 0 0 1-2.223.414h-.005c-1.266.058-1.624.074-4.872.074-3.25 0-3.582 0-4.872-.074a6.613 6.613 0 0 1-2.271-.431l.045.015a4 4 0 0 1-2.283-2.253l-.009-.027a6.629 6.629 0 0 1-.414-2.22v-.006c-.058-1.267-.07-1.624-.07-4.872s0-3.581.07-4.874a6.684 6.684 0 0 1 .416-2.25 4.007 4.007 0 0 1 2.263-2.271l.027-.009a6.55 6.55 0 0 1 2.219-.416h.005c1.269-.056 1.626-.072 4.874-.072 3.25 0 3.584 0 4.872.072.762.01 1.514.15 2.227.416a4.01 4.01 0 0 1 2.274 2.255l.009.027c.261.714.402 1.466.414 2.226.058 1.269.072 1.624.072 4.874 0 3.248 0 3.597-.058 4.872h-.016z"/></symbol><symbol id="icon-minus" viewBox="0 0 160 32"><path d="M5.328 5.328h149.344v21.344H5.328V5.328z"/></symbol><symbol id="icon-moon" viewBox="0 0 32 32"><path d="M28.951 17.547c-.922.256-1.982.403-3.075.404h-.039c-3.255 0-6.2-1.323-8.328-3.461a11.85 11.85 0 0 1-3.458-8.382c0-1.088.146-2.142.42-3.143l-.019.083a1.48 1.48 0 0 0-1.82-1.809l.01-.002c-2.615.711-4.861 2.041-6.653 3.826C.215 10.837.215 20.236 5.987 26.014a14.674 14.674 0 0 0 10.439 4.341h.042-.002.042c4.077 0 7.766-1.658 10.43-4.337l.001-.001a14.806 14.806 0 0 0 3.803-6.55l.024-.104a1.483 1.483 0 0 0-1.824-1.811l.01-.002zm-4.107 6.373a11.735 11.735 0 0 1-8.348 3.472h-.032.002-.026a11.75 11.75 0 0 1-8.355-3.473c-2.141-2.147-3.464-5.109-3.464-8.38s1.324-6.234 3.465-8.381c.87-.87 1.876-1.603 2.984-2.167l.067-.031a14.809 14.809 0 0 0 4.284 11.628l-.001-.001a14.728 14.728 0 0 0 10.451 4.331c.414 0 .824-.017 1.229-.05l-.053.004a11.973 11.973 0 0 1-2.2 3.049z"/></symbol><symbol id="icon-plus" viewBox="0 0 32 32"><path d="M30.934 13.866h-12.8v-12.8h-4.269v12.8h-12.8v4.269h12.8v12.8h4.269v-12.8h12.8v-4.269z"/></symbol><symbol id="icon-quotes" viewBox="0 0 45 32"><path d="M11.733 12.8c-.476 0-.932.073-1.387.139.147-.495.299-.998.542-1.451.243-.657.623-1.227 1.001-1.801.316-.621.873-1.041 1.282-1.572.429-.516 1.013-.86 1.476-1.289.454-.448 1.05-.672 1.523-.988.495-.284.926-.597 1.387-.747l1.15-.474 1.011-.42L18.683.063 17.409.37c-.407.102-.905.222-1.47.365-.578.107-1.195.399-1.882.666-.678.303-1.463.508-2.193.994-.734.465-1.581.853-2.327 1.476-.723.642-1.596 1.199-2.24 2.016-.704.764-1.399 1.566-1.939 2.479-.625.87-1.05 1.826-1.498 2.771a23.545 23.545 0 0 0-.998 2.85 25.69 25.69 0 0 0-.819 5.199c-.073 1.532-.03 2.805.06 3.727.032.435.092.858.134 1.15l.053.358.055-.013c.96 4.369 4.797 7.59 9.387 7.59 5.302 0 9.6-4.298 9.6-9.6s-4.298-9.6-9.6-9.6h-.001zm23.467 0c-.476 0-.932.073-1.387.139.147-.495.299-.998.542-1.451.243-.657.623-1.227 1.001-1.801.316-.621.873-1.041 1.282-1.572.429-.516 1.013-.86 1.476-1.289.454-.448 1.05-.672 1.523-.988.495-.284.926-.597 1.387-.747l1.15-.474 1.011-.42L42.15.063 40.876.37c-.407.102-.905.222-1.47.365-.578.107-1.195.399-1.882.666-.676.305-1.463.508-2.193.996-.734.465-1.581.853-2.327 1.476-.723.642-1.596 1.199-2.24 2.014-.704.764-1.399 1.566-1.939 2.479-.625.87-1.05 1.826-1.498 2.771a23.545 23.545 0 0 0-.998 2.85 25.69 25.69 0 0 0-.819 5.199c-.073 1.532-.03 2.805.06 3.727.032.435.092.858.134 1.15l.053.358.055-.013c.959 4.369 4.797 7.59 9.387 7.59 5.302 0 9.6-4.298 9.6-9.6s-4.298-9.6-9.6-9.6h-.001z"/></symbol><symbol id="icon-shopping-bag" viewBox="0 0 32 32"><path d="M6.667 29.333h18.666A2.668 2.668 0 0 0 28 26.667V12c0-.736-.597-1.333-1.333-1.333h-4V9.333A6.675 6.675 0 0 0 16 2.667a6.674 6.674 0 0 0-6.667 6.665v1.335h-4C4.597 10.667 4 11.264 4 12v14.667a2.67 2.67 0 0 0 2.667 2.666zm5.333-20c0-2.205 1.795-4 4-4s4 1.795 4 4v1.334h-8V9.333zm-5.333 4h2.666V16H12v-2.667h8V16h2.667v-2.667h2.666l.003 13.334H6.667V13.333z"/></symbol><symbol id="icon-sun" viewBox="0 0 32 32"><path d="M8.583 16c0 4.089 3.326 7.417 7.417 7.417 4.089 0 7.417-3.326 7.417-7.417 0-4.089-3.326-7.417-7.417-7.417a7.426 7.426 0 0 0-7.417 7.416V16zM16 11.545A4.46 4.46 0 0 1 20.455 16 4.46 4.46 0 0 1 16 20.455 4.46 4.46 0 0 1 11.545 16 4.46 4.46 0 0 1 16 11.545zm-1.484 14.827h2.964v4.444h-2.964v-4.444zm0-25.186h2.964V5.63h-2.964V1.186zM1.182 14.519h4.444v2.962H1.182v-2.962zm25.186 0h4.444v2.962h-4.444v-2.962zM4.473 25.428l3.141-3.145 2.096 2.094-3.141 3.145-2.098-2.094zM22.281 7.621l3.145-3.145 2.094 2.096-3.143 3.143-2.096-2.094zM7.618 9.717 4.475 6.574l2.096-2.096 3.141 3.145-2.094 2.094zM27.52 25.428l-2.094 2.096-3.145-3.145 2.096-2.094 3.143 3.143z"/></symbol><symbol id="icon-trash" viewBox="0 0 28 32"><path d="M18.667 1.186H9.778a2.965 2.965 0 0 0-2.964 2.962v2.964H.889v2.964h2.964v17.778a2.964 2.964 0 0 0 2.962 2.962h14.816a2.964 2.964 0 0 0 2.962-2.962V10.076h2.964V7.112h-5.925V4.148a2.966 2.966 0 0 0-2.964-2.962zM9.778 4.148h8.889v2.964H9.778V4.148zM21.63 27.852H6.814V10.074H21.63v17.778z"/></symbol><symbol id="icon-twitter" viewBox="0 0 32 32"><path d="M26.176 10.662c.019.234.019.466.019.698 0 7.101-5.405 15.28-15.28 15.28h-.04a15.1 15.1 0 0 1-8.266-2.447l.059.036c.432.05.848.067 1.296.067h.027a10.71 10.71 0 0 0 6.664-2.312l-.023.017a5.385 5.385 0 0 1-5.013-3.687l-.011-.038c.333.05.667.083 1.016.083.48 0 .965-.067 1.414-.182-2.473-.513-4.306-2.674-4.306-5.263V12.839c.715.4 1.546.648 2.426.682a5.368 5.368 0 0 1-2.394-4.466v-.006c0-.998.264-1.912.73-2.71 2.662 3.257 6.599 5.386 11.037 5.619l.038.002a5.959 5.959 0 0 1-.133-1.23v-.004a5.368 5.368 0 0 1 5.368-5.368h.002c1.547 0 2.944.648 3.925 1.696a10.588 10.588 0 0 0 3.456-1.323l-.048.027a5.392 5.392 0 0 1-2.337 2.947l-.024.013a10.769 10.769 0 0 0 3.16-.859l-.068.027c-.748 1.082-1.64 2-2.66 2.754l-.031.022z"/></symbol><symbol id="icon-watch-logo" viewBox="0 0 25 32"><path d="M24.295 16a11.84 11.84 0 0 0-5.869-10.215l-.056-.03V2.667a1.48 1.48 0 0 0-1.481-1.481H8a1.48 1.48 0 0 0-1.481 1.481v3.086C2.956 7.837.599 11.643.594 15.999V16a11.856 11.856 0 0 0 6.068 10.339l.06.031h-.203v3.026A1.48 1.48 0 0 0 8 30.877h8.889a1.48 1.48 0 0 0 1.481-1.481V26.372h-.206c3.68-2.057 6.129-5.928 6.132-10.371zm-11.852 8.889a8.897 8.897 0 0 1-8.885-8.888V16a8.896 8.896 0 0 1 8.885-8.889h.001c4.903 0 8.889 3.988 8.889 8.889a8.896 8.896 0 0 1-8.889 8.889z"/></symbol></defs></svg>